<svg width="100" height="100" viewBox="0 0 100 100" fill="none" xmlns="http://www.w3.org/2000/svg">
<path fill-rule="evenodd" clip-rule="evenodd" d="M32.668 89.422C33.9507 89.422 34.888 89.6936 35.48 90.237C36.072 90.7803 36.3683 91.6253 36.369 92.772V98.918H34.445V93.032C34.445 91.736 33.7183 91.088 32.265 91.088C31.6372 91.0827 31.0209 91.2561 30.488 91.588C30.5802 91.9757 30.6236 92.3735 30.617 92.772V98.918H28.693V93.032C28.693 91.736 27.9664 91.088 26.513 91.088C25.8499 91.0886 25.1922 91.2078 24.571 91.44V98.918H22.648V90.385C23.2847 90.0684 23.9586 89.8332 24.654 89.685C25.3958 89.512 26.1544 89.4221 26.916 89.417C28.116 89.417 29.0077 89.6503 29.591 90.117C30.5518 89.658 31.6033 89.4205 32.668 89.422V89.422ZM42.961 99.2C41.4943 99.2 40.392 98.7803 39.654 97.941C38.916 97.1016 38.5467 95.88 38.546 94.276C38.546 91.03 40.0127 89.4073 42.946 89.408C44.424 89.408 45.5353 89.8243 46.28 90.657C47.0247 91.4896 47.3973 92.696 47.398 94.276C47.398 95.8546 47.0133 97.07 46.244 97.922C45.4747 98.774 44.3803 99.2 42.961 99.2ZM42.942 97.552C44.628 97.552 45.4707 96.46 45.47 94.276C45.47 93.19 45.27 92.3786 44.87 91.842C44.47 91.3053 43.8287 91.0366 42.946 91.036C42.0547 91.036 41.4167 91.3106 41.032 91.86C40.6473 92.4093 40.455 93.2146 40.455 94.276C40.455 95.3366 40.6533 96.148 41.05 96.71C41.4467 97.272 42.0773 97.5513 42.942 97.548V97.552ZM53.821 89.426C55.189 89.426 56.227 89.8393 56.935 90.666C57.643 91.4926 57.998 92.6636 58 94.179C58 96.0056 57.5757 97.2983 56.727 98.057C55.8783 98.8156 54.7997 99.1966 53.491 99.2C50.865 99.2 49.552 98.4966 49.552 97.09V85.905H51.458V90C51.8413 89.8168 52.2437 89.6769 52.658 89.583C53.0383 89.4853 53.4285 89.4313 53.821 89.422V89.426ZM53.344 97.515C54.344 97.515 55.044 97.225 55.444 96.645C55.844 96.065 56.044 95.269 56.044 94.257C56.044 93.221 55.8333 92.4313 55.412 91.888C54.9907 91.3446 54.365 91.0733 53.535 91.074C53.1734 91.0764 52.8134 91.1227 52.463 91.212C52.1122 91.2967 51.7754 91.4314 51.463 91.612V96.612C51.4597 97.212 52.0867 97.5116 53.344 97.511V97.515ZM60.174 86.39H62.226V88.149H60.174V86.39ZM60.229 89.685H62.153L62.171 98.922H60.229V89.685ZM64.879 98.922V86.109H66.785V98.918L64.879 98.922ZM73.23 89.4C74.6593 89.4 75.7066 89.8666 76.372 90.8C77.0373 91.7333 77.364 93.0383 77.352 94.715H70.9C70.962 95.6283 71.2286 96.3226 71.7 96.798C72.1713 97.2733 72.84 97.5106 73.706 97.51C74.7435 97.5111 75.7644 97.25 76.674 96.751V98.565C75.7213 98.9883 74.63 99.2 73.4 99.2C72.02 99.2 70.936 98.7773 70.148 97.932C69.36 97.0866 68.9663 95.8866 68.967 94.332C68.967 92.74 69.3393 91.5216 70.084 90.677C70.8287 89.8323 71.8773 89.4066 73.23 89.4ZM73.175 91C72.5276 91 72.021 91.173 71.655 91.519C71.289 91.865 71.0507 92.451 70.94 93.277H75.392C75.306 92.487 75.086 91.9103 74.732 91.547C74.378 91.1836 73.859 91.0013 73.175 91ZM54.8 14.846C52.678 14.3213 51.0447 14.0586 49.9 14.058C41.361 14.058 34.438 20.958 34.438 29.467C34.438 37.976 41.364 44.877 49.9 44.877C58.436 44.877 65.363 37.977 65.363 29.467C65.3636 28.2238 65.2138 26.9852 64.917 25.778L77.21 22.467C78.2058 26.2527 78.3941 30.2056 77.7627 34.0688C77.1313 37.9321 75.6942 41.6193 73.545 44.891L53.189 82.63H34.331L47.731 57.93C47.804 57.794 47.589 57.494 47.409 57.478C33.09 56.178 21.874 44.178 21.874 29.569C21.874 14.09 34.464 1.54299 49.996 1.54299C52.8392 1.53986 55.6666 1.96703 58.382 2.80999L54.8 14.846Z" fill="#006E53"/>
<path d="M49.807 37.9419C54.4876 37.9419 58.282 34.1476 58.282 29.4669C58.282 24.7863 54.4876 20.9919 49.807 20.9919C45.1264 20.9919 41.332 24.7863 41.332 29.4669C41.332 34.1476 45.1264 37.9419 49.807 37.9419Z" fill="#D6E806"/>
<path d="M75.0409 19.644C72.3996 12.9238 67.2056 7.52231 60.5939 4.62M64.4459 23.689C62.9776 20.0136 60.1477 17.0465 56.5459 15.406L64.4459 23.689ZM69.8399 21.377C67.7663 16.2795 63.8454 12.1522 58.8609 9.82L69.8399 21.377Z" stroke="#D6E806" stroke-width="2" stroke-linecap="round"/>
</svg>
