<svg width="100" height="100" viewBox="0 0 100 100" fill="none" xmlns="http://www.w3.org/2000/svg">
<path d="M50.2488 89.273C72.439 89.273 90.4278 71.2843 90.4278 49.094C90.4278 26.9037 72.439 8.91498 50.2488 8.91498C28.0586 8.91498 10.0698 26.9037 10.0698 49.094C10.0698 71.2843 28.0586 89.273 50.2488 89.273Z" fill="#50B651"/>
<path opacity="0.663" fill-rule="evenodd" clip-rule="evenodd" d="M90.3052 48.981C90.3052 71.241 72.2602 89.286 50.0052 89.286C27.7502 89.286 9.7002 71.241 9.7002 48.981C9.7002 39.134 9.9762 37.67 13.8522 32.064C13.8522 32.064 13.6522 38.396 18.2952 42.164C21.1822 44.505 24.1952 42.815 29.7102 40.275C35.6762 37.525 40.5262 35.751 44.3102 36.219C50.0102 36.925 67.5792 47.476 76.7482 45.375C84.0732 43.7 83.3002 26.43 83.3002 26.43C91.3002 34.242 90.3052 39.522 90.3052 48.981Z" fill="url(#paint0_linear_393_194)"/>
<path opacity="0.586" fill-rule="evenodd" clip-rule="evenodd" d="M67.2998 78.586C81.8765 64.8747 84.2995 49.1667 74.5688 31.462C74.6181 31.498 75.2201 29.4207 76.3748 25.23C81.5535 31.5014 84.3071 39.242 84.6358 48.452C84.6331 60.3814 78.8545 70.426 67.2998 78.586Z" fill="url(#paint1_linear_393_194)"/>
<path opacity="0.744" fill-rule="evenodd" clip-rule="evenodd" d="M60.386 25.313C53.35 21.419 45.278 13.586 46.351 11.941C47.424 10.296 61.351 10.579 68.3879 14.473C75.4249 18.367 81.4139 30.048 80.3419 31.693C79.2699 33.338 67.4219 29.207 60.386 25.313Z" fill="url(#paint2_radial_393_194)"/>
<path fill-rule="evenodd" clip-rule="evenodd" d="M66.5148 58.989C60.6778 58.989 55.9458 54.122 55.9458 48.119C55.9458 42.116 60.6778 37.25 66.5148 37.25C72.3518 37.25 77.0848 42.116 77.0848 48.119C77.0848 54.122 72.3528 58.989 66.5148 58.989ZM66.5898 55.541C70.2328 55.541 73.1898 52.218 73.1898 48.119C73.1898 44.02 70.2328 40.7 66.5898 40.7C62.9468 40.7 59.9898 44.023 59.9898 48.121C59.9898 52.219 62.9468 55.541 66.5898 55.541Z" fill="white"/>
<path fill-rule="evenodd" clip-rule="evenodd" d="M44.708 28.498H52.324V58.868H48.143V31.829H44.708V28.498Z" fill="white"/>
<path fill-rule="evenodd" clip-rule="evenodd" d="M39.0322 37.559H42.9852V62.921C42.9852 65.232 40.5542 67.639 38.1852 68.675C37.0652 69.1643 34.9985 69.455 31.9852 69.547V67.024C34.9325 66.6953 36.9219 66.0397 37.9532 65.057C38.5483 64.23 38.9203 63.2636 39.0332 62.251V54.8C37.9765 57.042 36.6459 58.5283 35.0412 59.259C33.3732 60.159 29.9782 60.011 28.5922 59.259C27.2062 58.507 25.1732 56.527 24.2412 53.578C23.9832 52.764 23.3412 50.549 23.4082 48.202C23.4682 45.967 24.2082 43.602 24.8232 42.63C25.8792 40.97 27.5442 38.891 30.0662 38.022C31.2982 37.5973 33.5815 37.4447 36.9162 37.564V40.073C34.4382 39.9057 32.8922 39.9893 32.2782 40.324C31.3572 40.824 29.2782 41.441 28.5922 45.972C27.9062 50.503 28.6122 54.211 30.7872 55.372C31.5322 55.772 32.8502 56.245 34.0682 55.828C36.4082 55.028 38.6102 52.175 38.7782 50.242C38.9475 48.2807 39.0322 44.053 39.0322 37.559Z" fill="white"/>
<path fill-rule="evenodd" clip-rule="evenodd" d="M89.0419 57.048C85.3089 75.0231 69.3809 88.5291 50.3 88.5291C28.447 88.5291 10.731 70.8131 10.731 48.96C10.731 35.384 17.568 23.405 27.986 16.28C19.521 23.3 14.131 33.905 14.131 45.764C14.131 66.9171 31.279 84.0641 52.431 84.0641C69.6569 84.0641 84.2249 72.6931 89.0419 57.048Z" fill="url(#paint3_radial_393_194)"/>
<path fill-rule="evenodd" clip-rule="evenodd" d="M50.3 2.09998C24.42 2.09998 3.43896 23.08 3.43896 48.96C3.43896 74.84 24.42 95.821 50.3 95.821C76.18 95.821 97.161 74.84 97.161 48.96C97.161 23.08 76.18 2.09998 50.3 2.09998ZM50.3 88.53C28.447 88.53 10.731 70.814 10.731 48.961C10.731 35.385 17.568 23.406 27.986 16.281C34.5563 11.781 42.3365 9.37873 50.3 9.39098C72.153 9.39098 89.869 27.106 89.869 48.96C89.8705 51.6772 89.5933 54.3873 89.042 57.048C85.309 75.023 69.381 88.529 50.3 88.529V88.53Z" fill="white"/>
<defs>
<linearGradient id="paint0_linear_393_194" x1="48.4482" y1="31.934" x2="53.6142" y2="78.587" gradientUnits="userSpaceOnUse">
<stop stop-color="#123214"/>
<stop offset="0.46" stop-color="#3E7C37"/>
<stop offset="0.91" stop-color="#5FBB46"/>
</linearGradient>
<linearGradient id="paint1_linear_393_194" x1="78.2923" y1="28.9013" x2="78.2923" y2="66.6267" gradientUnits="userSpaceOnUse">
<stop stop-color="white" stop-opacity="0"/>
<stop offset="0.64" stop-color="white" stop-opacity="0.43"/>
<stop offset="1" stop-color="white" stop-opacity="0.42"/>
</linearGradient>
<radialGradient id="paint2_radial_393_194" cx="0" cy="0" r="1" gradientUnits="userSpaceOnUse" gradientTransform="translate(64.2028 22.0813) rotate(26.7606) scale(19.8543 8.26897)">
<stop offset="0.13" stop-color="white"/>
<stop offset="0.29" stop-color="white" stop-opacity="0.69"/>
<stop offset="0.45" stop-color="white" stop-opacity="0.4"/>
<stop offset="0.59" stop-color="white" stop-opacity="0.18"/>
<stop offset="0.69" stop-color="white" stop-opacity="0.05"/>
<stop offset="0.74" stop-color="white" stop-opacity="0"/>
</radialGradient>
<radialGradient id="paint3_radial_393_194" cx="0" cy="0" r="1" gradientUnits="userSpaceOnUse" gradientTransform="translate(57.0851 39.8432) rotate(39.84) scale(44.493 48.4974)">
<stop offset="0.86" stop-opacity="0"/>
<stop offset="0.98" stop-opacity="0.47"/>
<stop offset="1"/>
</radialGradient>
</defs>
</svg>
