<svg width="100" height="100" viewBox="0 0 100 100" fill="none" xmlns="http://www.w3.org/2000/svg">
<rect width="100" height="100" fill="white"/>
<g clip-path="url(#clip0_393_200)">
<path d="M50.0001 25C22.386 25 0 36.1931 0 49.9999C0 63.807 22.386 74.9999 50.0001 74.9999C77.6142 74.9999 100 63.8068 100 49.9999C100 36.1929 77.6142 25 50.0001 25ZM50.0001 71.0531C24.5656 71.0531 3.94698 61.6274 3.94698 49.9999C3.94698 38.3725 24.5658 28.9468 50.0001 28.9468C75.4345 28.9468 96.0532 38.3725 96.0532 49.9999C96.0532 61.6274 75.4343 71.0531 50.0001 71.0531V71.0531ZM43.6945 45.614V41.6664H57.8001V45.614H52.7219V58.3335H48.7735V45.614H43.6945V45.614ZM74.8265 41.6664V58.3337H70.8797L63.7211 48.4118V58.3337H59.7741V41.6664H63.7209L70.8795 51.5883V41.6664H74.8265V41.6664ZM25.0561 58.3337V41.6664H29.0031L33.3882 48.4118L37.7733 41.6664H41.7187V58.3337H37.7733V48.9063L34.7796 53.508H31.9968L29.0031 48.9063V58.3337H25.0561V58.3337Z" fill="black"/>
</g>
<defs>
<clipPath id="clip0_393_200">
<rect width="100" height="50.0001" fill="white" transform="translate(0 25)"/>
</clipPath>
</defs>
</svg>
