<svg width="100" height="100" viewBox="0 0 100 100" fill="none" xmlns="http://www.w3.org/2000/svg">
<g clip-path="url(#clip0_393_196)">
<path d="M26.5078 52.3198V55.9939H24.479V46.0934H28.1769C29.3759 46.0934 30.2776 46.3738 30.882 46.9348C31.4958 47.4957 31.8029 48.2577 31.8029 49.2206C31.8029 50.1648 31.4862 50.9174 30.8532 51.4783C30.2297 52.0393 29.3376 52.3198 28.1769 52.3198H26.5078ZM27.9611 50.7351C29.1505 50.7351 29.7453 50.2303 29.7453 49.2206C29.7453 48.7251 29.6062 48.3465 29.328 48.0847C29.0498 47.8229 28.5942 47.6921 27.9611 47.6921H26.5078V50.7351H27.9611Z" fill="#1E4A86"/>
<path d="M36.2433 48.1266C36.9149 48.1266 37.4904 48.2809 37.97 48.5894C38.4495 48.8979 38.7901 49.314 38.9916 49.8375V48.2248H41.0059V55.9938H38.9916V54.3671C38.7901 54.8906 38.4495 55.3113 37.97 55.6291C37.4904 55.9377 36.9149 56.0919 36.2433 56.0919C35.5718 56.0919 34.9675 55.933 34.4303 55.6151C33.8932 55.2973 33.4712 54.8392 33.1641 54.2409C32.8669 53.6331 32.7183 52.9226 32.7183 52.1093C32.7183 51.2959 32.8669 50.5901 33.1641 49.9917C33.4712 49.3841 33.8932 48.9213 34.4303 48.6035C34.9675 48.2856 35.5718 48.1266 36.2433 48.1266ZM36.8765 49.8515C36.2433 49.8515 35.735 50.0525 35.3514 50.4545C34.9675 50.8566 34.7758 51.4081 34.7758 52.1093C34.7758 52.8105 34.9675 53.362 35.3514 53.764C35.735 54.1566 36.2433 54.353 36.8765 54.353C37.4904 54.353 37.9941 54.152 38.3873 53.75C38.7901 53.3387 38.9916 52.7917 38.9916 52.1093C38.9916 51.4175 38.7901 50.8706 38.3873 50.4686C37.9941 50.0572 37.4904 49.8515 36.8765 49.8515Z" fill="#1E4A86"/>
<path d="M44.2113 48.2249L46.384 53.4976L48.3983 48.2249H50.6286L45.7509 59.696H43.5063L45.3048 55.7694L41.9521 48.2249H44.2113Z" fill="#1E4A86"/>
<path d="M55.9934 46.4724C57.2594 46.4724 58.3098 46.7902 59.1445 47.4259C59.9789 48.0617 60.5306 48.9264 60.799 50.0203H58.6696C58.4488 49.4874 58.1036 49.0667 57.6337 48.7582C57.173 48.4497 56.6166 48.2954 55.9646 48.2954C55.4275 48.2954 54.943 48.4263 54.5111 48.688C54.0795 48.9498 53.7439 49.3238 53.5039 49.8099C53.2643 50.296 53.1442 50.8663 53.1442 51.5208C53.1442 52.1658 53.2643 52.7315 53.5039 53.2176C53.7439 53.7037 54.0795 54.0776 54.5111 54.3394C54.943 54.6012 55.4275 54.7321 55.9646 54.7321C56.6166 54.7321 57.173 54.5778 57.6337 54.2693C58.1036 53.9609 58.4488 53.5401 58.6696 53.0072H60.799C60.5306 54.1011 59.9789 54.9658 59.1445 55.6016C58.3098 56.2373 57.2594 56.5552 55.9934 56.5552C55.0244 56.5552 54.1659 56.3448 53.4179 55.9241C52.6792 55.494 52.1036 54.8957 51.6909 54.1291C51.2882 53.3625 51.0869 52.493 51.0869 51.5208C51.0869 50.5391 51.2882 49.665 51.6909 48.8984C52.1036 48.1318 52.6792 47.5381 53.4179 47.1174C54.1563 46.6874 55.0148 46.4724 55.9934 46.4724Z" fill="#393B3E"/>
<path d="M69.8174 52.2915C69.8174 52.4879 69.7932 52.7122 69.7452 52.9646H63.9034C63.9322 53.6565 64.1242 54.166 64.479 54.4932C64.8341 54.8204 65.2752 54.984 65.8028 54.984C66.2728 54.984 66.6613 54.8719 66.9681 54.6474C67.2848 54.4231 67.4864 54.1192 67.5725 53.7359H69.7164C69.6109 54.2781 69.3855 54.7643 69.0403 55.1944C68.6951 55.6244 68.2489 55.9609 67.7022 56.204C67.165 56.4471 66.5653 56.5687 65.9034 56.5687C65.1266 56.5687 64.4359 56.4097 63.8316 56.0918C63.2273 55.7646 62.7573 55.3019 62.4214 54.7035C62.0858 54.1053 61.918 53.3994 61.918 52.586C61.918 51.7727 62.0858 51.0668 62.4214 50.4685C62.7573 49.8609 63.2273 49.3981 63.8316 49.0802C64.4359 48.7623 65.1266 48.6034 65.9034 48.6034C66.6901 48.6034 67.3759 48.7623 67.961 49.0802C68.5557 49.3981 69.0115 49.8374 69.3279 50.3984C69.6542 50.95 69.8174 51.581 69.8174 52.2915ZM67.774 52.0952C67.8028 51.4595 67.63 50.978 67.2561 50.6508C66.8913 50.3236 66.4406 50.16 65.9034 50.16C65.3567 50.16 64.8963 50.3236 64.5223 50.6508C64.148 50.978 63.9418 51.4595 63.9034 52.0952H67.774Z" fill="#393B3E"/>
<path d="M76.0061 48.5895C76.9268 48.5895 77.6606 48.884 78.2076 49.4729C78.7544 50.062 79.0278 50.8893 79.0278 51.9551V56.4706H77.0132V52.1794C77.0132 51.5624 76.8504 51.0856 76.5241 50.749C76.1981 50.4032 75.7519 50.2302 75.186 50.2302C74.6104 50.2302 74.1498 50.4125 73.8046 50.7772C73.4594 51.1417 73.2866 51.6652 73.2866 52.3477V56.4706H71.2578V48.7017H73.2866V50.2583C73.4977 49.7347 73.8429 49.3281 74.3225 49.0382C74.812 48.739 75.373 48.5895 76.0061 48.5895Z" fill="#393B3E"/>
<path d="M85.0715 54.7735V56.4703H84.0068C83.1146 56.4703 82.4288 56.26 81.9492 55.8393C81.4793 55.4186 81.244 54.7174 81.244 53.7358V50.3702H80.1362V48.7014H81.244V46.7802H83.2731V48.7014H85.0573V50.3702H83.2731V53.7639C83.2731 54.1378 83.3495 54.3995 83.5031 54.5492C83.6567 54.6987 83.9158 54.7735 84.2802 54.7735H85.0715Z" fill="#393B3E"/>
<path d="M88.5603 50.1882C88.8573 49.6926 89.2511 49.3047 89.7402 49.0242C90.2294 48.7344 90.7761 48.5895 91.3802 48.5895V50.707H90.7901C89.3037 50.707 88.5603 51.3801 88.5603 52.7264V56.4706H86.5312V48.7017H88.5603V50.1882Z" fill="#393B3E"/>
<path d="M99.9998 52.2915C99.9998 52.4879 99.9759 52.7122 99.9273 52.9646H94.0855C94.1143 53.6565 94.3066 54.166 94.6611 54.4932C95.0162 54.8204 95.4577 54.984 95.9855 54.984C96.4549 54.984 96.8437 54.8719 97.1502 54.6474C97.467 54.4231 97.6682 54.1192 97.7546 53.7359H99.8985C99.7933 54.2781 99.5682 54.7643 99.2227 55.1944C98.8775 55.6244 98.4311 55.9609 97.8843 56.204C97.3468 56.4471 96.7475 56.5687 96.0859 56.5687C95.3088 56.5687 94.6184 56.4097 94.014 56.0918C93.4097 55.7646 92.9394 55.3019 92.6032 54.7035C92.2679 54.1053 92.1001 53.3994 92.1001 52.586C92.1001 51.7727 92.2679 51.0668 92.6032 50.4685C92.9394 49.8609 93.4097 49.3981 94.014 49.0802C94.6184 48.7623 95.3088 48.6034 96.0859 48.6034C96.8725 48.6034 97.558 48.7623 98.1434 49.0802C98.7379 49.3981 99.1939 49.8374 99.5106 50.3984C99.836 50.95 99.9998 51.581 99.9998 52.2915ZM97.9558 52.0952C97.9846 51.4595 97.8122 50.978 97.4382 50.6508C97.0738 50.3236 96.6224 50.16 96.0859 50.16C95.5391 50.16 95.0787 50.3236 94.7047 50.6508C94.3304 50.978 94.1242 51.4595 94.0855 52.0952H97.9558Z" fill="#393B3E"/>
<path d="M9.00566 54.7741C13.1072 54.7741 16.4322 51.4408 16.4322 47.329C16.4322 43.2172 13.1072 39.884 9.00566 39.884C4.90409 39.884 1.5791 43.2172 1.5791 47.329C1.5791 51.4408 4.90409 54.7741 9.00566 54.7741Z" fill="white"/>
<path fill-rule="evenodd" clip-rule="evenodd" d="M9.11412 65.2446L2.77419 54.0667C2.34472 53.5375 2.01271 52.8707 1.63576 52.1136L1.63575 52.1136C1.45602 51.7526 1.26608 51.3712 1.05049 50.9743C0.283184 49.5597 -0.0753551 47.9684 0.0131896 46.3707C0.101734 44.7729 0.634037 43.2285 1.55322 41.9027C2.53753 40.4811 3.92368 39.3681 5.54378 38.6986C6.93434 38.1249 8.44997 37.899 9.95291 38.0415C11.4558 38.1839 12.8984 38.6901 14.1495 39.5141C15.608 40.4735 16.7498 41.8245 17.4367 43.4034C17.9095 44.4923 18.152 45.663 18.1495 46.8454C18.1492 48.2731 17.7945 49.6795 17.1156 50.9446C16.9207 51.3077 16.7416 51.6664 16.5702 52.0097C16.1444 52.8622 15.7663 53.6192 15.3141 54.1104L9.11412 65.2446ZM13.5619 47.8592L13.5619 47.8592C13.5915 47.9156 13.6203 47.9706 13.6532 48.0217C13.6748 48.0428 13.6991 48.0613 13.7235 48.0798C13.7484 48.0987 13.7734 48.1176 13.7955 48.1393C13.747 48.0761 13.6985 48.0104 13.6499 47.9448L13.6499 47.9447L13.6498 47.9446L13.6497 47.9445L13.6496 47.9443L13.6495 47.9442L13.6494 47.944C13.5995 47.8765 13.5496 47.8089 13.4997 47.7441C13.5218 47.7827 13.542 47.8213 13.5619 47.8592ZM7.52712 50.8191C6.25545 50.3065 5.04403 49.6622 3.91375 48.8972C3.80396 49.132 6.15932 50.6163 7.52712 50.8191ZM3.77211 48.4058C4.07034 48.6523 4.38115 48.8838 4.70334 49.0998C5.33975 49.5343 6.01437 49.9129 6.71926 50.2315C7.06988 50.3917 7.43133 50.5307 7.79276 50.6588C8.15421 50.7869 8.52684 50.8935 8.89913 50.9899C9.27139 51.0863 9.64406 51.1606 10.0276 51.2246C9.83034 51.1285 9.63322 51.0325 9.4469 50.9364C9.33715 50.9007 9.23226 50.8656 9.12573 50.83L9.12502 50.8298C9.07229 50.8121 9.01916 50.7943 8.96486 50.7763C8.60737 50.6587 8.25629 50.5232 7.913 50.3705C7.56238 50.221 7.23381 50.0609 6.89403 49.8902C6.23133 49.5439 5.59771 49.1473 4.99907 48.7039C4.70334 48.4797 4.40762 48.2464 4.12269 48.0099C3.94759 47.8603 3.77211 47.7002 3.6078 47.5401L4.14474 47.0168C4.17783 46.9846 4.20969 46.9523 4.24115 46.9204H4.24118V46.9204C4.30347 46.8574 4.36415 46.7959 4.42963 46.7391C4.23248 46.5044 4.057 46.2908 3.91474 46.0986C3.85 46.1553 3.78539 46.2157 3.72084 46.276C3.66508 46.3281 3.60935 46.3802 3.55365 46.4298C3.30087 46.6646 3.04813 46.8996 2.80873 47.1336C2.78716 47.1546 2.76441 47.1757 2.74127 47.1971C2.69391 47.2409 2.64488 47.2862 2.60074 47.3364C2.6975 47.4414 2.79995 47.5412 2.90766 47.6354C3.18065 47.904 3.46663 48.1605 3.77211 48.4058ZM5.38474 47.4449C5.14207 47.1458 4.90269 46.847 4.67269 46.5373C4.48709 46.2802 4.31619 46.023 4.14198 45.7609V45.7609H4.14195C4.09926 45.6966 4.05635 45.632 4.01297 45.5671C3.98836 45.5233 3.96223 45.4794 3.9357 45.4348C3.89142 45.3603 3.8461 45.2841 3.80498 45.2039C3.84975 45.1824 3.89146 45.158 3.9331 45.1338V45.1337C3.97378 45.11 4.0144 45.0863 4.05774 45.0653C4.20347 44.9885 4.34672 44.9096 4.48988 44.8307L4.48997 44.8307C4.64799 44.7436 4.80594 44.6566 4.96697 44.5726C5.07319 44.5092 5.18542 44.4514 5.29455 44.3952C5.33195 44.376 5.36901 44.3569 5.40533 44.3379C5.49307 44.5515 5.60248 44.8077 5.7339 45.0854C5.67359 45.1174 5.61607 45.152 5.55858 45.1867H5.55855C5.50105 45.2214 5.44359 45.256 5.38328 45.288L5.32003 45.3249C5.12223 45.4402 4.92418 45.5556 4.72613 45.6618C4.84601 45.8539 4.96734 46.046 5.09876 46.2382C5.30675 46.5479 5.52579 46.8469 5.75594 47.1353C6.22297 47.7112 6.73198 48.2536 7.27898 48.7583C7.55081 49.0145 7.8361 49.2568 8.13368 49.4843C8.42904 49.719 8.72511 49.9326 9.04288 50.1462C9.11372 50.1888 9.18464 50.234 9.25557 50.2793L9.25567 50.2793C9.32715 50.3249 9.39864 50.3704 9.47003 50.4133C9.62353 50.5629 9.7878 50.7019 9.95211 50.8406C9.60009 50.6869 9.25641 50.5159 8.92226 50.3282C8.59368 50.1462 8.26511 49.9435 7.94734 49.7299C7.62879 49.5175 7.32161 49.2895 7.02694 49.0465C6.43663 48.5561 5.88746 48.0206 5.38474 47.4449ZM8.06697 48.875C7.22644 47.8114 6.50644 46.6623 5.9196 45.4477C5.80703 45.5189 5.69446 45.593 5.58195 45.6671L5.58189 45.6671C5.47533 45.7372 5.36882 45.8073 5.26242 45.8749C6.02824 47.0135 6.97489 48.0262 8.06697 48.875ZM6.48954 46.0027C6.32523 45.6624 6.1718 45.3102 6.04034 44.947C5.89873 44.5884 5.77817 44.2223 5.67926 43.8504C5.63666 43.7114 5.60381 43.5833 5.57093 43.4446C5.62084 43.434 5.66799 43.4205 5.71514 43.407C5.76115 43.3938 5.80715 43.3807 5.85585 43.3701L5.98783 43.3364C6.28096 43.2618 6.56805 43.1886 6.86362 43.1237C6.90254 43.1156 6.9422 43.1067 6.9826 43.0978L6.98263 43.0977C7.10115 43.0714 7.22591 43.0437 7.3565 43.0276C7.36403 43.0814 7.37155 43.1375 7.37932 43.1954C7.40554 43.3908 7.43477 43.6085 7.47709 43.8392C7.40827 43.8554 7.33941 43.8748 7.27056 43.8942C7.20799 43.9118 7.14539 43.9295 7.08279 43.9447C6.96399 43.9763 6.84257 44.0078 6.72118 44.0393C6.59604 44.0719 6.47093 44.1044 6.34873 44.1369C6.36084 44.1763 6.37297 44.2161 6.38517 44.2561L6.38536 44.2567L6.38551 44.2572V44.2572C6.43929 44.4337 6.49443 44.6145 6.55669 44.7883C6.67731 45.1405 6.80873 45.4823 6.95099 45.824C7.24508 46.5007 7.59303 47.1539 7.99164 47.7778C8.18879 48.0871 8.40799 48.3863 8.62715 48.6854C8.84529 48.9854 9.07935 49.2741 9.32839 49.5503C9.41424 49.65 9.5074 49.7505 9.59573 49.8458L9.59579 49.8459L9.59585 49.8459C9.6204 49.8724 9.64458 49.8985 9.66814 49.9241C9.77796 50.106 9.89817 50.2873 10.0188 50.458C9.72269 50.2124 9.43814 49.967 9.16409 49.6999C8.89037 49.433 8.62752 49.1553 8.37548 48.867C8.12201 48.5791 7.88375 48.2789 7.66161 47.9675C7.21238 47.3474 6.82016 46.69 6.48954 46.0027ZM10.6126 42.2609H10.6126H10.6126C10.4402 42.2529 10.2677 42.2449 10.0926 42.2341C9.97288 42.2306 9.85446 42.2257 9.73647 42.2208C9.50886 42.2115 9.28282 42.2021 9.05192 42.2021C8.71214 42.1916 8.36152 42.1916 8.02214 42.1916H8.02211H7.73718V42.6079C7.73718 42.9922 7.75923 43.3765 7.79207 43.7611C7.82495 44.1458 7.87982 44.5191 7.94554 44.8929C8.0844 45.6374 8.28595 46.3695 8.54821 47.0818C8.67963 47.4337 8.8331 47.7856 8.99737 48.1281C9.15886 48.4678 9.33808 48.7992 9.5343 49.1212C9.73146 49.4523 9.93985 49.7616 10.1586 50.0713C10.3803 50.3783 10.618 50.6741 10.8707 50.9575C10.6538 50.651 10.4585 50.3343 10.2632 50.0174L10.2632 50.0174L10.2569 50.0072C10.0825 49.7076 9.91824 49.3984 9.75381 49.0888L9.71991 49.025C9.5556 48.6939 9.40217 48.3526 9.27071 48.0109C9.12845 47.6692 9.00786 47.3168 8.89808 46.9646C8.67783 46.263 8.51663 45.545 8.41604 44.8179C8.36115 44.4547 8.3283 44.0919 8.30771 43.7182C8.29687 43.494 8.28567 43.2607 8.28567 43.0348H9.04071C9.3913 43.0348 9.73071 43.0242 10.0813 43.0133H10.0813L11.122 42.9813C11.2068 42.9762 11.2916 42.9735 11.3753 42.9709H11.3753H11.3753C11.4644 42.9682 11.5521 42.9654 11.6369 42.9598C11.6751 42.9598 11.7162 42.9572 11.7573 42.9545C11.7984 42.9519 11.8394 42.9493 11.8777 42.9493C11.8885 43.1414 11.8998 43.3335 11.9215 43.5257C11.9543 43.8248 11.998 44.113 12.0528 44.4013C12.1715 44.9754 12.3475 45.5368 12.5786 46.0774C12.6908 46.3477 12.8189 46.6115 12.9621 46.8675C13.1043 47.1237 13.2578 47.3693 13.4221 47.6149C13.445 47.6583 13.4746 47.6979 13.5098 47.7324C13.6084 47.8711 13.8056 48.1276 13.8056 48.1276L13.8605 48.2023C13.8932 48.2389 13.9225 48.2783 13.9482 48.3198C14.1376 48.5433 14.3387 48.7572 14.5509 48.9603C14.3757 48.7256 14.2111 48.4905 14.0454 48.2449C13.9132 48.0326 13.7892 47.8204 13.6662 47.6097L13.6662 47.6096L13.607 47.5083C13.5964 47.4877 13.5858 47.4672 13.5753 47.4467C13.5668 47.4301 13.5582 47.4136 13.5498 47.3972C13.4378 47.1802 13.3282 46.9677 13.2344 46.7398C13.126 46.4836 13.0263 46.2164 12.9274 45.9497C12.7522 45.4161 12.6204 44.8698 12.5331 44.3161C12.4876 44.0403 12.4583 43.7622 12.4454 43.4831C12.4252 43.202 12.4216 42.92 12.4346 42.6385C12.4346 42.5891 12.4374 42.5396 12.4402 42.4916V42.4916C12.4428 42.4463 12.4454 42.4024 12.4454 42.3608C12.3982 42.3558 12.351 42.3532 12.305 42.3506H12.305C12.2549 42.3478 12.2062 42.3451 12.1604 42.3394C12.1207 42.3394 12.0808 42.3365 12.0425 42.3338C12.0071 42.3313 11.9729 42.3288 11.9413 42.3288C11.8928 42.3236 11.8444 42.321 11.7959 42.3184C11.7458 42.3156 11.6957 42.3129 11.6456 42.3074C11.4931 42.3089 11.3384 42.2998 11.1912 42.2911L11.1332 42.2876C10.9579 42.2769 10.7853 42.2689 10.6126 42.2609ZM11.7855 47.0744C12.0471 47.1788 12.2655 47.3653 12.406 47.6044C12.3833 47.5611 12.3687 47.5141 12.3631 47.4658C12.2437 47.186 12.0259 46.957 11.7487 46.82C11.4715 46.6829 11.1532 46.6468 10.8511 46.7183C10.2814 46.8999 10.0513 47.6793 10.4348 48.4159C10.4599 48.4716 10.4896 48.5253 10.5233 48.5764C10.2276 47.9035 10.4467 47.2201 10.9617 47.028C11.2338 46.9536 11.5237 46.97 11.7855 47.0744Z" fill="url(#paint0_linear_393_196)"/>
</g>
<defs>
<linearGradient id="paint0_linear_393_196" x1="9.07477" y1="38" x2="9.07477" y2="65.2446" gradientUnits="userSpaceOnUse">
<stop stop-color="#00B9FF"/>
<stop offset="1" stop-color="#007FFF"/>
</linearGradient>
<clipPath id="clip0_393_196">
<rect width="100" height="27.2446" fill="white" transform="translate(0 38)"/>
</clipPath>
</defs>
</svg>
