<svg width="50" height="50" viewBox="0 0 50 50" fill="none" xmlns="http://www.w3.org/2000/svg">
<path fill-rule="evenodd" clip-rule="evenodd" d="M16.3335 44.9395C16.9748 44.9395 17.4435 45.0753 17.7395 45.347C18.0355 45.6186 18.1837 46.0411 18.184 46.6145V49.6875H17.222V46.7445C17.222 46.0965 16.8587 45.7725 16.132 45.7725C15.8181 45.7698 15.51 45.8565 15.2435 46.0225C15.2896 46.2163 15.3113 46.4152 15.308 46.6145V49.6875H14.346V46.7445C14.346 46.0965 13.9827 45.7725 13.256 45.7725C12.9244 45.7728 12.5956 45.8324 12.285 45.9485V49.6875H11.3235V45.421C11.6418 45.2627 11.9788 45.1451 12.3265 45.071C12.6974 44.9845 13.0767 44.9395 13.4575 44.937C14.0575 44.937 14.5033 45.0536 14.795 45.287C15.2754 45.0575 15.8011 44.9387 16.3335 44.9395ZM21.48 49.8285C20.7467 49.8285 20.1955 49.6186 19.8265 49.199C19.4575 48.7793 19.2728 48.1685 19.2725 47.3665C19.2725 45.7435 20.0058 44.9321 21.4725 44.9325C22.2115 44.9325 22.7672 45.1406 23.1395 45.557C23.5118 45.9733 23.6982 46.5765 23.6985 47.3665C23.6985 48.1558 23.5062 48.7635 23.1215 49.1894C22.7368 49.6155 22.1897 49.8285 21.48 49.8285ZM21.4705 49.0045C22.3135 49.0045 22.7348 48.4585 22.7345 47.3665C22.7345 46.8235 22.6345 46.4178 22.4345 46.1495C22.2345 45.8811 21.9138 45.7468 21.4725 45.7465C21.0268 45.7465 20.7078 45.8838 20.5155 46.1585C20.3232 46.4331 20.227 46.8358 20.227 47.3665C20.227 47.8968 20.3262 48.3025 20.5245 48.5834C20.7228 48.8645 21.0382 49.0041 21.4705 49.0025V49.0045ZM26.91 44.9415C27.594 44.9415 28.113 45.1481 28.467 45.5615C28.821 45.9748 28.9985 46.5603 28.9995 47.318C28.9995 48.2313 28.7873 48.8776 28.363 49.257C27.9387 49.6363 27.3993 49.8268 26.745 49.8285C25.432 49.8285 24.7755 49.4768 24.7755 48.7735V43.181H25.7285V45.2285C25.9201 45.1369 26.1214 45.067 26.3285 45.02C26.5186 44.9711 26.7137 44.9441 26.91 44.9395V44.9415ZM26.6715 48.986C27.1715 48.986 27.5215 48.841 27.7215 48.551C27.9215 48.261 28.0215 47.863 28.0215 47.357C28.0215 46.839 27.9162 46.4441 27.7055 46.1725C27.4948 45.9008 27.182 45.7651 26.767 45.7655C26.5862 45.7667 26.4062 45.7898 26.231 45.8345C26.0556 45.8768 25.8872 45.9442 25.731 46.0345V48.5345C25.7293 48.8345 26.0428 48.9843 26.6715 48.984V48.986ZM30.0865 43.4235H31.1125V44.303H30.0865V43.4235ZM30.114 45.071H31.076L31.085 49.6894H30.114V45.071ZM32.439 49.6894V43.283H33.392V49.6875L32.439 49.6894ZM36.6145 44.9285C37.3291 44.9285 37.8528 45.1618 38.1855 45.6285C38.5181 46.0951 38.6815 46.7476 38.6755 47.586H35.4495C35.4805 48.0426 35.6138 48.3898 35.8495 48.6275C36.0851 48.8651 36.4195 48.9838 36.8525 48.9835C37.3712 48.984 37.8817 48.8535 38.3365 48.604V49.511C37.8601 49.7226 37.3145 49.8285 36.6995 49.8285C36.0095 49.8285 35.4675 49.6171 35.0735 49.1945C34.6795 48.7718 34.4826 48.1718 34.483 47.3945C34.483 46.5985 34.6691 45.9893 35.0415 45.567C35.4138 45.1446 35.9381 44.9318 36.6145 44.9285ZM36.587 45.7285C36.2633 45.7285 36.01 45.815 35.827 45.988C35.644 46.161 35.5248 46.454 35.4695 46.867H37.6955C37.6525 46.472 37.5425 46.1836 37.3655 46.002C37.1885 45.8203 36.929 45.7291 36.587 45.7285ZM27.3995 7.65152C26.3385 7.38922 25.5218 7.25782 24.9495 7.25752C20.68 7.25752 17.2185 10.7075 17.2185 14.962C17.2185 19.2165 20.6815 22.667 24.9495 22.667C29.2175 22.667 32.681 19.217 32.681 14.962C32.6813 14.3404 32.6064 13.7211 32.458 13.1175L38.6045 11.462C39.1024 13.3548 39.1965 15.3313 38.8808 17.2629C38.5651 19.1945 37.8466 21.0381 36.772 22.674L26.594 41.5435H17.165L23.865 29.1935C23.9015 29.1255 23.794 28.9755 23.704 28.9675C16.5445 28.3175 10.9365 22.3175 10.9365 15.013C10.9365 7.27352 17.2315 1.00001 24.9975 1.00001C26.4191 0.998448 27.8328 1.21203 29.1905 1.63352L27.3995 7.65152Z" fill="white"/>
<path d="M24.9025 19.1996C27.2428 19.1996 29.14 17.3024 29.14 14.9621C29.14 12.6218 27.2428 10.7246 24.9025 10.7246C22.5622 10.7246 20.665 12.6218 20.665 14.9621C20.665 17.3024 22.5622 19.1996 24.9025 19.1996Z" fill="white" fill-opacity="0.5"/>
<path d="M37.52 10.0506C36.1994 6.69054 33.6024 3.98974 30.2965 2.53864L37.52 10.0506ZM32.2225 12.0731C31.4884 10.2353 30.0735 8.75184 28.2725 7.93164L32.2225 12.0731ZM34.9195 10.9171C33.8827 8.36834 31.9223 6.30474 29.43 5.13864L34.9195 10.9171Z" stroke="white" stroke-opacity="0.5" stroke-linecap="round"/>
</svg>
