<svg width="50" height="50" viewBox="0 0 50 50" fill="none" xmlns="http://www.w3.org/2000/svg">
<path d="M30.8951 0.613037C32.5501 0.636037 34.1291 0.950037 35.6036 1.70004C36.9036 2.36554 37.9636 3.29604 38.6871 4.57854C39.1573 5.42517 39.4657 6.35197 39.5966 7.31153C39.8656 9.15353 39.5936 10.9355 38.9861 12.678C38.6291 13.7 38.1352 14.6585 37.6002 15.6C36.5102 17.5165 35.1096 19.1775 33.4806 20.65C31.3907 22.541 29.0989 24.1962 26.6466 25.5855C25.6966 26.122 24.7116 26.5725 23.6521 26.848C23.0031 27.0233 22.3329 27.1081 21.6606 27.1C20.7756 27.082 20.0831 26.679 19.5446 26C19.0474 25.3906 18.7912 24.6199 18.8246 23.834C18.8305 23.6154 18.862 23.3983 18.9186 23.187C19.2391 22.0485 19.6746 20.958 20.3256 19.9635C20.8231 19.204 21.4161 18.5295 22.1916 18.047C23.0541 17.51 23.9916 17.2805 25.0056 17.502C25.3226 17.5763 25.621 17.715 25.8821 17.9095C26.5496 18.3865 26.5146 19.135 26.1941 19.613C25.9196 20.0284 25.6126 20.4215 25.2761 20.7885C24.7061 21.4025 24.1006 21.983 23.5096 22.577C22.9866 23.1025 22.4951 23.654 22.0966 24.2825C21.8901 24.6085 21.6996 24.941 21.6426 25.3325C21.5706 25.8235 21.8256 26.158 22.3211 26.204C22.5775 26.2249 22.8355 26.199 23.0826 26.1275C23.8441 25.917 24.5511 25.5775 25.2456 25.2115C26.3166 24.645 27.3051 23.9525 28.2686 23.222C29.4366 22.3365 30.5722 21.413 31.6187 20.386C32.8107 19.2175 33.8731 17.9475 34.6861 16.482C35.2801 15.412 35.7177 14.282 35.9122 13.07C36.0842 12.0025 35.9881 10.9625 35.4936 9.98253C35.2555 9.49814 34.8831 9.0925 34.4207 8.81403C34.2072 8.68551 33.9717 8.59769 33.7262 8.55503C32.8327 8.39653 31.9682 8.52653 31.1187 8.81003C30.2332 9.10603 29.4116 9.53803 28.6131 10.01C26.8801 11.038 25.1451 12.0655 23.4936 13.223C22.6656 13.803 21.8631 14.42 21.0516 15.023C20.3186 15.568 19.5906 16.1195 18.7896 16.565C18.1396 16.9352 17.4361 17.2022 16.7041 17.3565C15.7971 17.5405 14.9611 17.3695 14.1931 16.8765C13.3961 16.365 12.8381 15.663 12.5931 14.734C12.4371 14.1475 12.4986 13.566 12.6331 12.987C12.8296 12.137 13.2026 11.367 13.6676 10.637C14.8176 8.83403 16.2636 7.30453 17.9451 5.99704C20.4371 4.05954 23.1791 2.56754 26.1451 1.48804C27.6679 0.931023 29.2738 0.635196 30.8951 0.613037Z" fill="white"/>
<path d="M10.3937 41.835C10.3852 41.269 10.3207 40.76 9.99372 40.3185C9.83448 40.1051 9.61403 39.9454 9.36172 39.8605C8.71172 39.6275 8.04972 39.655 7.40422 39.8545C6.88672 40.0145 6.38772 40.2325 5.88122 40.427C5.78122 40.464 5.69022 40.5115 5.56922 40.5655C5.33072 39.974 5.09622 39.4 4.85072 38.8C5.20622 38.6315 5.54122 38.4595 5.88672 38.312C6.68272 37.9715 7.50822 37.738 8.37621 37.6855C9.24421 37.633 10.1007 37.679 10.8907 38.1C11.7842 38.573 12.4292 39.256 12.6992 40.25C12.7382 40.3801 12.7615 40.5143 12.7687 40.65C12.8032 41.9405 12.8497 43.231 12.8552 44.5215C12.8587 45.4035 12.8007 46.286 12.7747 47.1685C12.7701 47.2895 12.7197 47.4042 12.6337 47.4895C12.0162 48.1695 11.2607 48.6395 10.4047 48.955C9.48681 49.2899 8.5093 49.4304 7.53422 49.3675C6.63422 49.3175 5.85722 48.949 5.20022 48.3375C4.54322 47.726 4.08422 46.9875 3.95622 46.0825C3.78122 44.843 4.13872 43.7675 5.02972 42.8825C5.60272 42.3135 6.30872 42.0195 7.10422 41.9155C7.98422 41.801 8.86722 41.8315 9.75022 41.834L10.3937 41.835ZM10.2782 43.85C10.2264 43.8397 10.1739 43.8326 10.1212 43.8285C9.82122 43.8225 9.51772 43.812 9.21622 43.8165C8.85472 43.822 8.49172 43.8235 8.13222 43.8575C7.76072 43.893 7.40022 44.0015 7.11222 44.2495C6.63422 44.6615 6.49222 45.1995 6.60872 45.806C6.75372 46.556 7.17272 47.08 7.91972 47.303C8.30489 47.4182 8.71273 47.4354 9.10622 47.353C9.47197 47.286 9.81312 47.1224 10.0942 46.879C10.1418 46.8421 10.1809 46.7954 10.209 46.7421C10.237 46.6888 10.2533 46.6301 10.2567 46.57C10.2682 46.3065 10.3022 46.0435 10.3042 45.78C10.3082 45.1765 10.2992 44.573 10.2942 43.9695C10.2912 43.9294 10.2859 43.8895 10.2782 43.85Z" fill="white"/>
<path d="M40.4667 43.8C38.3217 43.8 36.2167 43.754 34.0822 43.81C34.0932 43.96 34.0997 44.102 34.1132 44.2405C34.1682 44.807 34.2902 45.3575 34.5297 45.8769C34.7159 46.3007 35.005 46.6712 35.3707 46.9549C35.9507 47.3954 36.6127 47.4674 37.3072 47.3779C37.8812 47.3039 38.4157 47.094 38.9487 46.8825C39.1932 46.786 39.4357 46.6824 39.6987 46.575C39.9487 47.0979 40.1937 47.6119 40.4487 48.1409C40.4017 48.1749 40.3577 48.2129 40.3087 48.2409C39.2687 48.8579 38.1517 49.2554 36.9452 49.3604C35.8452 49.4559 34.7952 49.2754 33.8452 48.6669C33.1982 48.2524 32.7452 47.6669 32.3662 47.0119C31.8994 46.197 31.6168 45.2898 31.5382 44.354C31.3795 42.6476 31.7419 41.059 32.6252 39.588C33.2412 38.5655 34.1607 38.01 35.3117 37.8185C36.3697 37.6324 37.4595 37.8138 38.4002 38.3325C38.9272 38.618 39.2942 39.0675 39.5967 39.5715C39.9967 40.236 40.2072 40.9685 40.3082 41.7275C40.3902 42.3395 40.4162 42.959 40.4652 43.5775C40.4712 43.641 40.4667 43.707 40.4667 43.8ZM37.8667 41.8575C37.7422 41.287 37.6572 40.704 37.2837 40.2205C37.0964 39.9802 36.8333 39.8103 36.5372 39.7385C35.7497 39.53 34.9582 39.893 34.6197 40.6385C34.4987 40.904 34.4277 41.1925 34.3397 41.472C34.3002 41.5985 34.2747 41.73 34.2432 41.8575C34.4547 41.9135 37.6502 41.916 37.8677 41.859L37.8667 41.8575Z" fill="white"/>
<path d="M26.3957 35.0855L28.9552 34.6895V37.833C29.5232 37.867 30.0641 37.83 30.6082 37.8885V39.825C30.0581 39.834 29.5197 39.8175 28.9582 39.8515C28.9582 39.9605 28.9582 40.042 28.9582 40.1235C28.9535 41.9875 28.9494 43.8516 28.9461 45.716C28.9461 46.0095 28.9697 46.3035 28.9962 46.596C29.0382 47.046 29.2876 47.3315 29.7236 47.441C29.9641 47.502 30.2112 47.5365 30.4552 47.583L30.7001 47.633V49.2765C30.6726 49.2901 30.6433 49.2999 30.6131 49.3055C29.8866 49.338 29.1631 49.319 28.4606 49.1055C27.7746 48.8985 27.2026 48.5235 26.8146 47.9055C26.5941 47.5555 26.4822 47.162 26.4337 46.7555C26.4043 46.5009 26.3899 46.2448 26.3906 45.9885C26.3906 42.4485 26.3927 38.9088 26.3967 35.3695L26.3957 35.0855Z" fill="white"/>
<path d="M41.8731 35.0874L44.3481 34.6584V34.9999C44.3481 38.2149 44.3495 41.4299 44.3521 44.6449C44.3521 45.2334 44.3571 45.8219 44.3616 46.4109C44.3656 46.9919 44.5776 47.2879 45.1326 47.4609C45.3212 47.5131 45.5127 47.5542 45.7061 47.5839C45.8241 47.6059 45.9436 47.6164 46.0871 47.6339V49.3129C46.0738 49.324 46.058 49.3317 46.0411 49.3354C45.3381 49.3639 44.6381 49.3524 43.9546 49.1524C43.5405 49.0332 43.1548 48.8312 42.8211 48.5584C42.1996 48.0499 41.9466 47.3684 41.8816 46.5999C41.8626 46.3749 41.8651 46.1474 41.8656 45.9214C41.8656 42.4044 41.8681 38.8878 41.8731 35.3714V35.0874Z" fill="white"/>
<path d="M21.4196 49.1645H18.9196C18.9166 49.06 18.9116 48.9645 18.9111 48.87C18.9084 47.368 18.9062 45.866 18.9046 44.364C18.9016 43.164 18.8941 41.964 18.8946 40.764C18.8954 40.5464 18.9121 40.3292 18.9446 40.114C18.9816 39.8685 19.1101 39.664 19.2886 39.4915C20.2706 38.5355 21.4471 37.9625 22.7886 37.7155C23.6293 37.5613 24.4909 37.5602 25.3321 37.712C25.3766 37.72 25.4211 37.73 25.4646 37.741C25.4861 37.7465 25.5066 37.757 25.5481 37.773C25.2641 38.495 24.9181 39.185 24.5921 39.867C24.2026 39.867 23.8336 39.8555 23.4656 39.8695C22.8301 39.8906 22.2062 40.046 21.6351 40.3255C21.4731 40.405 21.4126 40.504 21.4131 40.6905C21.4201 43.4238 21.4217 46.1572 21.4181 48.8905L21.4196 49.1645Z" fill="white"/>
<path d="M17.0748 37.939C17.1013 41.685 17.0723 45.409 17.0963 49.156H14.6498C14.6438 49.0655 14.6318 48.971 14.6318 48.8765C14.6318 46.5215 14.6318 44.1661 14.6318 41.8105C14.6318 40.731 14.6408 39.6515 14.6453 38.572C14.6453 38.49 14.6453 38.408 14.6453 38.305L17.0748 37.939Z" fill="white"/>
<path d="M15.7495 36.8365C14.555 36.8335 13.807 35.6445 14.3025 34.522C14.607 33.8335 15.13 33.572 15.8845 33.5765C16.8955 33.585 17.645 34.5905 17.404 35.573C17.2115 36.358 16.5815 36.8385 15.7495 36.8365Z" fill="white"/>
</svg>
