<svg width="323" height="88" viewBox="0 0 323 88" fill="none" xmlns="http://www.w3.org/2000/svg">
<path d="M85.6208 46.2529V58.1204H79.0679V26.1417H91.012C94.8849 26.1417 97.7975 27.0476 99.7495 28.8595C101.732 30.6713 102.724 33.1323 102.724 36.2426C102.724 39.2925 101.701 41.7232 99.6566 43.5351C97.6425 45.347 94.7611 46.2529 91.012 46.2529H85.6208ZM90.315 41.1346C94.1568 41.1346 96.0779 39.5039 96.0779 36.2426C96.0779 34.6422 95.6286 33.4192 94.7301 32.5737C93.8315 31.7281 92.3599 31.3054 90.315 31.3054H85.6208V41.1346H90.315Z" fill="#1E4A86"/>
<path d="M117.066 32.7091C119.235 32.7091 121.094 33.2074 122.643 34.2039C124.192 35.2004 125.292 36.5441 125.943 38.2352V33.0262H132.449V58.1199H125.943V52.8657C125.292 54.5567 124.192 55.9154 122.643 56.9421C121.094 57.9387 119.235 58.4369 117.066 58.4369C114.897 58.4369 112.945 57.9236 111.21 56.8969C109.475 55.8702 108.112 54.3905 107.12 52.458C106.16 50.495 105.68 48.2001 105.68 45.573C105.68 42.9458 106.16 40.6659 107.12 38.7333C108.112 36.7706 109.475 35.2759 111.21 34.2492C112.945 33.2225 114.897 32.7091 117.066 32.7091ZM119.111 38.2804C117.066 38.2804 115.424 38.9296 114.185 40.2281C112.945 41.5267 112.326 43.3082 112.326 45.573C112.326 47.8379 112.945 49.6194 114.185 50.9178C115.424 52.186 117.066 52.8202 119.111 52.8202C121.094 52.8202 122.721 52.171 123.991 50.8725C125.292 49.544 125.943 47.7773 125.943 45.573C125.943 43.3384 125.292 41.572 123.991 40.2735C122.721 38.9447 121.094 38.2804 119.111 38.2804Z" fill="#1E4A86"/>
<path d="M142.802 33.0262L149.82 50.0573L156.326 33.0262H163.53L147.775 70.078H140.525L146.334 57.3951L135.505 33.0262H142.802Z" fill="#1E4A86"/>
<path d="M180.858 27.3657C184.947 27.3657 188.34 28.3924 191.036 30.4458C193.731 32.4992 195.513 35.2924 196.38 38.8255H189.502C188.789 37.1042 187.674 35.7454 186.156 34.7489C184.668 33.7524 182.871 33.2541 180.765 33.2541C179.03 33.2541 177.465 33.6769 176.07 34.5224C174.676 35.3679 173.592 36.5758 172.817 38.146C172.043 39.7162 171.655 41.5583 171.655 43.6721C171.655 45.7557 172.043 47.5826 172.817 49.1528C173.592 50.7231 174.676 51.9308 176.07 52.7763C177.465 53.6218 179.03 54.0446 180.765 54.0446C182.871 54.0446 184.668 53.5464 186.156 52.5499C187.674 51.5536 188.789 50.1946 189.502 48.4734H196.38C195.513 52.0065 193.731 54.7996 191.036 56.8531C188.34 58.9065 184.947 59.9332 180.858 59.9332C177.728 59.9332 174.955 59.2536 172.539 57.8949C170.153 56.5057 168.294 54.5732 166.961 52.097C165.66 49.6208 165.01 46.8125 165.01 43.6721C165.01 40.5014 165.66 37.678 166.961 35.2018C168.294 32.7257 170.153 30.8082 172.539 29.4493C174.924 28.0603 177.697 27.3657 180.858 27.3657Z" fill="#393B3E"/>
<path d="M225.51 46.1617C225.51 46.7959 225.432 47.5205 225.277 48.3358H206.408C206.501 50.5705 207.121 52.2163 208.267 53.2731C209.414 54.33 210.839 54.8583 212.543 54.8583C214.061 54.8583 215.316 54.4962 216.307 53.7713C217.33 53.0467 217.981 52.0652 218.259 50.8271H225.184C224.843 52.5784 224.115 54.1488 223 55.538C221.885 56.9269 220.444 58.0139 218.678 58.7991C216.943 59.5843 215.006 59.9769 212.868 59.9769C210.359 59.9769 208.128 59.4634 206.176 58.4367C204.224 57.3798 202.706 55.8851 201.621 53.9525C200.537 52.02 199.995 49.7401 199.995 47.1128C199.995 44.4858 200.537 42.2059 201.621 40.2734C202.706 38.3106 204.224 36.8158 206.176 35.7891C208.128 34.7624 210.359 34.249 212.868 34.249C215.409 34.249 217.624 34.7624 219.514 35.7891C221.435 36.8158 222.907 38.235 223.929 40.0469C224.983 41.8284 225.51 43.8668 225.51 46.1617ZM218.91 45.5276C219.003 43.4742 218.445 41.9191 217.237 40.8622C216.059 39.8054 214.603 39.2768 212.868 39.2768C211.102 39.2768 209.615 39.8054 208.407 40.8622C207.198 41.9191 206.532 43.4742 206.408 45.5276H218.91Z" fill="#393B3E"/>
<path d="M245.499 34.2041C248.473 34.2041 250.843 35.1553 252.61 37.0577C254.376 38.9602 255.259 41.6325 255.259 45.0751V59.66H248.752V45.7997C248.752 43.8068 248.226 42.2666 247.172 41.1795C246.119 40.0623 244.678 39.5036 242.85 39.5036C240.991 39.5036 239.503 40.0925 238.388 41.2703C237.273 42.4478 236.715 44.1388 236.715 46.3433V59.66H230.162V34.5665H236.715V39.5943C237.397 37.9032 238.512 36.5897 240.061 35.6535C241.642 34.6872 243.454 34.2041 245.499 34.2041Z" fill="#393B3E"/>
<path d="M274.781 54.1784V59.6591H271.342C268.46 59.6591 266.245 58.9798 264.696 57.621C263.178 56.262 262.418 53.9972 262.418 50.8266V39.9556H258.84V34.5656H262.418V28.3601H268.972V34.5656H274.735V39.9556H268.972V50.9173C268.972 52.125 269.219 52.9705 269.715 53.4538C270.211 53.9369 271.048 54.1784 272.225 54.1784H274.781Z" fill="#393B3E"/>
<path d="M286.05 39.3679C287.009 37.7673 288.281 36.5142 289.861 35.6083C291.441 34.6722 293.207 34.2041 295.158 34.2041V41.0438H293.252C288.451 41.0438 286.05 43.2179 286.05 47.5663V59.66H279.496V34.5665H286.05V39.3679Z" fill="#393B3E"/>
<path d="M323 46.1617C323 46.7959 322.923 47.5205 322.766 48.3358H303.897C303.99 50.5705 304.611 52.2163 305.756 53.2731C306.903 54.33 308.329 54.8583 310.034 54.8583C311.55 54.8583 312.806 54.4962 313.796 53.7713C314.819 53.0467 315.469 52.0652 315.748 50.8271H322.673C322.333 52.5784 321.606 54.1488 320.49 55.538C319.375 56.9269 317.933 58.0139 316.167 58.7991C314.431 59.5843 312.495 59.9769 310.358 59.9769C307.848 59.9769 305.618 59.4634 303.666 58.4367C301.714 57.3798 300.195 55.8851 299.109 53.9525C298.026 52.02 297.484 49.7401 297.484 47.1128C297.484 44.4858 298.026 42.2059 299.109 40.2734C300.195 38.3106 301.714 36.8158 303.666 35.7891C305.618 34.7624 307.848 34.249 310.358 34.249C312.899 34.249 315.113 34.7624 317.004 35.7891C318.924 36.8158 320.397 38.235 321.42 40.0469C322.471 41.8284 323 43.8668 323 46.1617ZM316.398 45.5276C316.491 43.4742 315.934 41.9191 314.726 40.8622C313.549 39.8054 312.091 39.2768 310.358 39.2768C308.592 39.2768 307.105 39.8054 305.897 40.8622C304.688 41.9191 304.022 43.4742 303.897 45.5276H316.398Z" fill="#393B3E"/>
<ellipse cx="29.0878" cy="30.1327" rx="23.9878" ry="24.0475" fill="white"/>
<path fill-rule="evenodd" clip-rule="evenodd" d="M29.4386 88L8.96062 51.8956C7.57344 50.186 6.50104 48.0322 5.28351 45.587L5.28348 45.5869C4.70296 44.421 4.08945 43.1889 3.39309 41.907C0.914685 37.3378 -0.243397 32.198 0.0426026 27.0372C0.328602 21.8764 2.04794 16.8882 5.01689 12.6057C8.19622 8.01386 12.6735 4.41895 17.9064 2.25646C22.3979 0.403495 27.2934 -0.326131 32.1479 0.133902C37.0022 0.593937 41.6617 2.22904 45.7028 4.89061C50.4138 7.98949 54.1019 12.353 56.3206 17.4529C57.8476 20.9701 58.6308 24.7516 58.623 28.5708C58.622 33.1821 57.4763 37.7247 55.2834 41.8109C54.654 42.9838 54.0753 44.1425 53.5216 45.2512C52.1463 48.005 50.9251 50.4501 49.4646 52.0366L29.4386 88ZM43.8049 31.8451L43.805 31.8452C43.9006 32.0275 43.9937 32.2049 44.0997 32.3702C44.1696 32.4382 44.2482 32.4979 44.327 32.5576L44.327 32.5576C44.4074 32.6187 44.488 32.6798 44.5593 32.7499C44.4027 32.5458 44.246 32.3337 44.0893 32.1216L44.0892 32.1214L44.0889 32.121L44.0886 32.1206L44.0883 32.1201L44.088 32.1197L44.0876 32.1192C43.9264 31.901 43.7652 31.6828 43.604 31.4733C43.6753 31.598 43.7407 31.7227 43.8049 31.8451ZM24.3126 41.4058C20.2051 39.7501 16.2922 37.669 12.6414 35.1981C12.2868 35.9563 19.8946 40.7508 24.3126 41.4058ZM12.1839 33.6107C13.1472 34.4068 14.1511 35.1548 15.1918 35.8524C17.2474 37.2557 19.4264 38.4788 21.7032 39.5078C22.8357 40.0251 24.0032 40.4741 25.1706 40.8878C26.3381 41.3016 27.5417 41.646 28.7442 41.9573C29.9466 42.2689 31.1503 42.5088 32.389 42.7155C31.752 42.4052 31.1153 42.095 30.5135 41.7847C30.159 41.6693 29.8202 41.556 29.4761 41.4409L29.4738 41.4401C29.3035 41.3831 29.1319 41.3257 28.9565 41.2674C27.8018 40.8876 26.6678 40.45 25.559 39.9568C24.4265 39.4739 23.3652 38.9566 22.2677 38.4052C20.1272 37.2869 18.0806 36.0058 16.147 34.5735C15.1918 33.8495 14.2366 33.0958 13.3163 32.3321C12.7507 31.8489 12.1839 31.3316 11.6532 30.8146L13.3875 29.1243C13.4944 29.0201 13.5973 28.9159 13.6989 28.813L13.699 28.813L13.699 28.813L13.699 28.813L13.699 28.8129L13.699 28.8129L13.699 28.8129C13.9002 28.6093 14.0962 28.4108 14.3077 28.2274C13.6709 27.4693 13.1041 26.7794 12.6446 26.1586C12.4355 26.3415 12.2268 26.5366 12.0183 26.7316C11.8382 26.8999 11.6582 27.0681 11.4783 27.2284C10.6618 27.9865 9.84545 28.7458 9.0722 29.5016C9.00251 29.5695 8.92904 29.6375 8.85429 29.7066C8.70133 29.848 8.54296 29.9945 8.40038 30.1565C8.71291 30.4956 9.04383 30.8181 9.39174 31.1225C10.2735 31.9898 11.1972 32.8184 12.1839 33.6107ZM17.3927 30.5071C16.6089 29.5408 15.8357 28.5759 15.0928 27.5755C14.4933 26.7449 13.9413 25.9143 13.3786 25.0677L13.3786 25.0677L13.3786 25.0676L13.3786 25.0676L13.3785 25.0676C13.2406 24.86 13.102 24.6515 12.9619 24.4418C12.8824 24.3004 12.798 24.1584 12.7123 24.0143L12.7123 24.0143C12.5693 23.7737 12.4229 23.5275 12.2901 23.2687C12.4347 23.1991 12.5694 23.1205 12.7039 23.0421L12.7039 23.042C12.8353 22.9654 12.9665 22.8888 13.1065 22.8209C13.5772 22.5729 14.0399 22.318 14.5023 22.0632L14.5026 22.0631C15.013 21.7819 15.5232 21.5008 16.0433 21.2295C16.3864 21.0246 16.7489 20.838 17.1014 20.6566C17.2222 20.5944 17.3419 20.5328 17.4592 20.4713C17.7426 21.1613 18.096 21.9888 18.5205 22.8857C18.3257 22.9891 18.1399 23.1011 17.9542 23.2131L17.9541 23.2131C17.7684 23.325 17.5828 23.437 17.388 23.5404L17.1837 23.6594C16.5448 24.0317 15.9051 24.4045 15.2654 24.7475C15.6526 25.3682 16.0445 25.9887 16.469 26.6095C17.1408 27.6096 17.8483 28.5756 18.5917 29.507C20.1002 31.3672 21.7443 33.1191 23.5111 34.7494C24.3891 35.5769 25.3106 36.3596 26.2718 37.0943C27.2258 37.8525 28.1821 38.5424 29.2085 39.2323C29.4373 39.3699 29.6664 39.5159 29.8955 39.662L29.8958 39.6621C30.1267 39.8093 30.3576 39.9564 30.5882 40.095C31.084 40.5782 31.6146 41.0271 32.1453 41.4751C31.0083 40.9786 29.8982 40.4264 28.8189 39.82C27.7576 39.2323 26.6963 38.5776 25.6699 37.8877C24.641 37.2016 23.6488 36.465 22.697 35.6802C20.7903 34.0963 19.0165 32.3665 17.3927 30.5071ZM26.0563 35.1264C23.3414 31.6909 21.0158 27.9792 19.1203 24.0561C18.7567 24.2861 18.3931 24.5254 18.0297 24.7646L18.0295 24.7647C17.6853 24.9913 17.3413 25.2177 16.9976 25.436C19.4712 29.1135 22.5289 32.3845 26.0563 35.1264ZM20.9612 25.8488C20.4305 24.7496 19.9349 23.6118 19.5103 22.4388C19.0529 21.2806 18.6635 20.0981 18.344 18.8968C18.2064 18.4478 18.1003 18.0341 17.9941 17.5862C18.1553 17.5517 18.3076 17.5081 18.4599 17.4645C18.6085 17.422 18.7571 17.3795 18.9144 17.3453L19.3407 17.2367L19.3407 17.2367C20.2875 16.9955 21.2148 16.7592 22.1695 16.5496C22.2952 16.5233 22.4233 16.4948 22.5538 16.4658L22.5539 16.4657L22.5539 16.4657C22.9367 16.3806 23.3397 16.291 23.7615 16.2393C23.7858 16.413 23.8101 16.594 23.8352 16.7812C23.9199 17.4123 24.0143 18.1154 24.151 18.8605C23.9287 18.9129 23.7063 18.9755 23.4839 19.0382C23.2818 19.0952 23.0796 19.1522 22.8774 19.2015C22.4937 19.3033 22.1015 19.4052 21.7094 19.5071C21.3052 19.6121 20.9011 19.7171 20.5064 19.8221C20.5455 19.9495 20.5847 20.078 20.6241 20.2073L20.6247 20.2092L20.6252 20.2107L20.6252 20.2108C20.7989 20.7807 20.977 21.3647 21.1781 21.9261C21.5677 23.0639 21.9922 24.1677 22.4517 25.2714C23.4016 27.4572 24.5255 29.5671 25.813 31.5824C26.4498 32.5814 27.1578 33.5477 27.8657 34.5137C28.5703 35.4829 29.3263 36.4155 30.1307 37.3076C30.408 37.6296 30.7089 37.9542 30.9942 38.262L30.9944 38.2622L30.9946 38.2624C31.0739 38.348 31.152 38.4323 31.2281 38.5148C31.5828 39.1025 31.9711 39.6881 32.3607 40.2392C31.4043 39.4459 30.4852 38.6535 29.6 37.7908C28.7159 36.9286 27.8669 36.0317 27.0528 35.1003C26.2341 34.1706 25.4645 33.2009 24.747 32.1949C23.296 30.1922 22.0291 28.0687 20.9612 25.8488ZM34.2788 13.7627L34.2787 13.7627L34.2786 13.7627C33.7218 13.7368 33.1648 13.711 32.5991 13.6763C32.2124 13.6647 31.8299 13.6489 31.4488 13.6332L31.4488 13.6332C30.7136 13.603 29.9835 13.5729 29.2377 13.5729C28.1402 13.5388 27.0077 13.5388 25.9115 13.5388H25.9114H24.9911V14.8835C24.9911 16.1248 25.0623 17.366 25.1684 18.6084C25.2746 19.8508 25.4518 21.0568 25.6641 22.264C26.1126 24.6688 26.7636 27.0335 27.6107 29.3341C28.0352 30.4709 28.5309 31.6076 29.0615 32.7137C29.5831 33.8109 30.162 34.8815 30.7958 35.9214C31.4326 36.9909 32.1057 37.9899 32.8123 38.9904C33.5283 39.982 34.2962 40.9373 35.1123 41.8526C34.4118 40.8628 33.7811 39.8399 33.1501 38.8163L33.15 38.8161L33.1297 38.7833C32.5664 37.8155 32.0359 36.8169 31.5048 35.8169L31.3953 35.6108C30.8646 34.5413 30.369 33.4388 29.9444 32.3351C29.4849 31.2314 29.0954 30.0934 28.7408 28.9556C28.0294 26.6896 27.5087 24.3705 27.1838 22.0219C27.0065 20.8488 26.9004 19.6769 26.8339 18.4697C26.7989 17.7457 26.7627 16.992 26.7627 16.2623H29.2015C30.3339 16.2623 31.4302 16.2282 32.5626 16.1929L32.5627 16.1929L35.924 16.0895C36.1979 16.073 36.472 16.0645 36.7421 16.0561L36.7422 16.0561L36.7423 16.0561C37.0301 16.0472 37.3134 16.0384 37.5871 16.0202C37.7107 16.0202 37.8434 16.0117 37.9761 16.0031C38.1087 15.9946 38.2414 15.9861 38.365 15.9861C38.4 16.6067 38.4364 17.2273 38.5063 17.848C38.6123 18.8141 38.7536 19.7451 38.9307 20.6761C39.3138 22.5305 39.8825 24.3438 40.629 26.0901C40.9912 26.963 41.4049 27.8151 41.8677 28.6419C42.327 29.4694 42.8227 30.2628 43.3534 31.0562C43.4273 31.1962 43.523 31.3243 43.6367 31.4358C43.9551 31.8837 44.5921 32.7123 44.5921 32.7123L44.7694 32.9535C44.8749 33.0717 44.9697 33.1989 45.0528 33.3331C45.6643 34.055 46.3139 34.7457 46.9993 35.4017C46.4336 34.6438 45.9018 33.8843 45.3666 33.0909C44.9395 32.4054 44.5392 31.7198 44.1418 31.0393L44.1417 31.039L43.9505 30.7118C43.9164 30.6452 43.8822 30.5789 43.8481 30.5127C43.8206 30.4593 43.7931 30.406 43.7657 30.3528C43.4042 29.6522 43.05 28.9656 42.747 28.2294C42.3969 27.4019 42.0751 26.5391 41.7556 25.6774C41.1897 23.9539 40.7639 22.1896 40.482 20.401C40.335 19.5101 40.2404 18.6118 40.1986 17.7104C40.1335 16.8025 40.1218 15.8916 40.1636 14.9824C40.1636 14.8227 40.1729 14.663 40.1819 14.508L40.1819 14.5078C40.1904 14.3616 40.1986 14.2196 40.1986 14.0855C40.0462 14.0692 39.8938 14.0607 39.7452 14.0524L39.7451 14.0524C39.5833 14.0434 39.426 14.0346 39.2782 14.0162C39.1498 14.0162 39.0211 14.007 38.8974 13.9982C38.7828 13.99 38.6724 13.9821 38.5705 13.9821C38.4138 13.9653 38.2573 13.9568 38.1007 13.9483L38.1007 13.9483C37.9388 13.9395 37.777 13.9307 37.6152 13.9128C37.1227 13.9178 36.6231 13.8882 36.1475 13.8601L35.9601 13.8491C35.3941 13.8144 34.8365 13.7885 34.2788 13.7627ZM38.067 29.3102C38.912 29.6474 39.6175 30.25 40.0714 31.0223C39.998 30.8823 39.951 30.7305 39.9327 30.5744C39.5473 29.6708 38.8435 28.9311 37.9484 28.4885C37.053 28.0459 36.0249 27.9293 35.0492 28.1601C33.2088 28.7467 32.4658 31.2643 33.7045 33.6434C33.7856 33.8232 33.8813 33.9966 33.9902 34.1618C33.0352 31.9883 33.7429 29.781 35.4062 29.1605C36.2853 28.9201 37.2217 28.973 38.067 29.3102Z" fill="url(#paint0_linear)"/>
<defs>
<linearGradient id="paint0_linear" x1="29.3115" y1="0" x2="29.3115" y2="88" gradientUnits="userSpaceOnUse">
<stop stop-color="#00B9FF"/>
<stop offset="1" stop-color="#007FFF"/>
</linearGradient>
</defs>
</svg>
